<svg version="1.1" xmlns="http://www.w3.org/2000/svg" xmlns:xlink="http://www.w3.org/1999/xlink" width="1540" height="548"><defs/><g><text fill="#eeeeee" stroke="none" font-family="Arial" font-size="24px" font-style="normal" font-weight="normal" text-decoration="none" x="0" y="0">UNREGISTERED</text><text fill="#eeeeee" stroke="none" font-family="Arial" font-size="24px" font-style="normal" font-weight="normal" text-decoration="none" x="0" y="30">UNREGISTERED</text><text fill="#eeeeee" stroke="none" font-family="Arial" font-size="24px" font-style="normal" font-weight="normal" text-decoration="none" x="0" y="60">UNREGISTERED</text><text fill="#eeeeee" stroke="none" font-family="Arial" font-size="24px" font-style="normal" font-weight="normal" text-decoration="none" x="0" y="90">UNREGISTERED</text><text fill="#eeeeee" stroke="none" font-family="Arial" font-size="24px" font-style="normal" font-weight="normal" text-decoration="none" x="0" y="120">UNREGISTERED</text><text fill="#eeeeee" stroke="none" font-family="Arial" font-size="24px" font-style="normal" font-weight="normal" text-decoration="none" x="0" y="150">UNREGISTERED</text><text fill="#eeeeee" stroke="none" font-family="Arial" font-size="24px" font-style="normal" font-weight="normal" text-decoration="none" x="0" y="180">UNREGISTERED</text><text fill="#eeeeee" stroke="none" font-family="Arial" font-size="24px" font-style="normal" font-weight="normal" text-decoration="none" x="0" y="210">UNREGISTERED</text><text fill="#eeeeee" stroke="none" font-family="Arial" font-size="24px" font-style="normal" font-weight="normal" text-decoration="none" x="0" y="240">UNREGISTERED</text><text fill="#eeeeee" stroke="none" font-family="Arial" font-size="24px" font-style="normal" font-weight="normal" text-decoration="none" x="0" y="270">UNREGISTERED</text><text fill="#eeeeee" stroke="none" font-family="Arial" font-size="24px" font-style="normal" font-weight="normal" text-decoration="none" x="0" y="300">UNREGISTERED</text><text fill="#eeeeee" stroke="none" font-family="Arial" font-size="24px" font-style="normal" font-weight="normal" text-decoration="none" x="0" y="330">UNREGISTERED</text><text fill="#eeeeee" stroke="none" font-family="Arial" font-size="24px" font-style="normal" font-weight="normal" text-decoration="none" x="0" y="360">UNREGISTERED</text><text fill="#eeeeee" stroke="none" font-family="Arial" font-size="24px" font-style="normal" font-weight="normal" text-decoration="none" x="0" y="390">UNREGISTERED</text><text fill="#eeeeee" stroke="none" font-family="Arial" font-size="24px" font-style="normal" font-weight="normal" text-decoration="none" x="0" y="420">UNREGISTERED</text><text fill="#eeeeee" stroke="none" font-family="Arial" font-size="24px" font-style="normal" font-weight="normal" text-decoration="none" x="0" y="450">UNREGISTERED</text><text fill="#eeeeee" stroke="none" font-family="Arial" font-size="24px" font-style="normal" font-weight="normal" text-decoration="none" x="0" y="480">UNREGISTERED</text><text fill="#eeeeee" stroke="none" font-family="Arial" font-size="24px" font-style="normal" font-weight="normal" text-decoration="none" x="0" y="510">UNREGISTERED</text><text fill="#eeeeee" stroke="none" font-family="Arial" font-size="24px" font-style="normal" font-weight="normal" text-decoration="none" x="0" y="540">UNREGISTERED</text><text fill="#eeeeee" stroke="none" font-family="Arial" font-size="24px" font-style="normal" font-weight="normal" text-decoration="none" x="200" y="0">UNREGISTERED</text><text fill="#eeeeee" stroke="none" font-family="Arial" font-size="24px" font-style="normal" font-weight="normal" text-decoration="none" x="200" y="30">UNREGISTERED</text><text fill="#eeeeee" stroke="none" font-family="Arial" font-size="24px" font-style="normal" font-weight="normal" text-decoration="none" x="200" y="60">UNREGISTERED</text><text fill="#eeeeee" stroke="none" font-family="Arial" font-size="24px" font-style="normal" font-weight="normal" text-decoration="none" x="200" y="90">UNREGISTERED</text><text fill="#eeeeee" stroke="none" font-family="Arial" font-size="24px" font-style="normal" font-weight="normal" text-decoration="none" x="200" y="120">UNREGISTERED</text><text fill="#eeeeee" stroke="none" font-family="Arial" font-size="24px" font-style="normal" font-weight="normal" text-decoration="none" x="200" y="150">UNREGISTERED</text><text fill="#eeeeee" stroke="none" font-family="Arial" font-size="24px" font-style="normal" font-weight="normal" text-decoration="none" x="200" y="180">UNREGISTERED</text><text fill="#eeeeee" stroke="none" font-family="Arial" font-size="24px" font-style="normal" font-weight="normal" text-decoration="none" x="200" y="210">UNREGISTERED</text><text fill="#eeeeee" stroke="none" font-family="Arial" font-size="24px" font-style="normal" font-weight="normal" text-decoration="none" x="200" y="240">UNREGISTERED</text><text fill="#eeeeee" stroke="none" font-family="Arial" font-size="24px" font-style="normal" font-weight="normal" text-decoration="none" x="200" y="270">UNREGISTERED</text><text fill="#eeeeee" stroke="none" font-family="Arial" font-size="24px" font-style="normal" font-weight="normal" text-decoration="none" x="200" y="300">UNREGISTERED</text><text fill="#eeeeee" stroke="none" font-family="Arial" font-size="24px" font-style="normal" font-weight="normal" text-decoration="none" x="200" y="330">UNREGISTERED</text><text fill="#eeeeee" stroke="none" font-family="Arial" font-size="24px" font-style="normal" font-weight="normal" text-decoration="none" x="200" y="360">UNREGISTERED</text><text fill="#eeeeee" stroke="none" font-family="Arial" font-size="24px" font-style="normal" font-weight="normal" text-decoration="none" x="200" y="390">UNREGISTERED</text><text fill="#eeeeee" stroke="none" font-family="Arial" font-size="24px" font-style="normal" font-weight="normal" text-decoration="none" x="200" y="420">UNREGISTERED</text><text fill="#eeeeee" stroke="none" font-family="Arial" font-size="24px" font-style="normal" font-weight="normal" text-decoration="none" x="200" y="450">UNREGISTERED</text><text fill="#eeeeee" stroke="none" font-family="Arial" font-size="24px" font-style="normal" font-weight="normal" text-decoration="none" x="200" y="480">UNREGISTERED</text><text fill="#eeeeee" stroke="none" font-family="Arial" font-size="24px" font-style="normal" font-weight="normal" text-decoration="none" x="200" y="510">UNREGISTERED</text><text fill="#eeeeee" stroke="none" font-family="Arial" font-size="24px" font-style="normal" font-weight="normal" text-decoration="none" x="200" y="540">UNREGISTERED</text><text fill="#eeeeee" stroke="none" font-family="Arial" font-size="24px" font-style="normal" font-weight="normal" text-decoration="none" x="400" y="0">UNREGISTERED</text><text fill="#eeeeee" stroke="none" font-family="Arial" font-size="24px" font-style="normal" font-weight="normal" text-decoration="none" x="400" y="30">UNREGISTERED</text><text fill="#eeeeee" stroke="none" font-family="Arial" font-size="24px" font-style="normal" font-weight="normal" text-decoration="none" x="400" y="60">UNREGISTERED</text><text fill="#eeeeee" stroke="none" font-family="Arial" font-size="24px" font-style="normal" font-weight="normal" text-decoration="none" x="400" y="90">UNREGISTERED</text><text fill="#eeeeee" stroke="none" font-family="Arial" font-size="24px" font-style="normal" font-weight="normal" text-decoration="none" x="400" y="120">UNREGISTERED</text><text fill="#eeeeee" stroke="none" font-family="Arial" font-size="24px" font-style="normal" font-weight="normal" text-decoration="none" x="400" y="150">UNREGISTERED</text><text fill="#eeeeee" stroke="none" font-family="Arial" font-size="24px" font-style="normal" font-weight="normal" text-decoration="none" x="400" y="180">UNREGISTERED</text><text fill="#eeeeee" stroke="none" font-family="Arial" font-size="24px" font-style="normal" font-weight="normal" text-decoration="none" x="400" y="210">UNREGISTERED</text><text fill="#eeeeee" stroke="none" font-family="Arial" font-size="24px" font-style="normal" font-weight="normal" text-decoration="none" x="400" y="240">UNREGISTERED</text><text fill="#eeeeee" stroke="none" font-family="Arial" font-size="24px" font-style="normal" font-weight="normal" text-decoration="none" x="400" y="270">UNREGISTERED</text><text fill="#eeeeee" stroke="none" font-family="Arial" font-size="24px" font-style="normal" font-weight="normal" text-decoration="none" x="400" y="300">UNREGISTERED</text><text fill="#eeeeee" stroke="none" font-family="Arial" font-size="24px" font-style="normal" font-weight="normal" text-decoration="none" x="400" y="330">UNREGISTERED</text><text fill="#eeeeee" stroke="none" font-family="Arial" font-size="24px" font-style="normal" font-weight="normal" text-decoration="none" x="400" y="360">UNREGISTERED</text><text fill="#eeeeee" stroke="none" font-family="Arial" font-size="24px" font-style="normal" font-weight="normal" text-decoration="none" x="400" y="390">UNREGISTERED</text><text fill="#eeeeee" stroke="none" font-family="Arial" font-size="24px" font-style="normal" font-weight="normal" text-decoration="none" x="400" y="420">UNREGISTERED</text><text fill="#eeeeee" stroke="none" font-family="Arial" font-size="24px" font-style="normal" font-weight="normal" text-decoration="none" x="400" y="450">UNREGISTERED</text><text fill="#eeeeee" stroke="none" font-family="Arial" font-size="24px" font-style="normal" font-weight="normal" text-decoration="none" x="400" y="480">UNREGISTERED</text><text fill="#eeeeee" stroke="none" font-family="Arial" font-size="24px" font-style="normal" font-weight="normal" text-decoration="none" x="400" y="510">UNREGISTERED</text><text fill="#eeeeee" stroke="none" font-family="Arial" font-size="24px" font-style="normal" font-weight="normal" text-decoration="none" x="400" y="540">UNREGISTERED</text><text fill="#eeeeee" stroke="none" font-family="Arial" font-size="24px" font-style="normal" font-weight="normal" text-decoration="none" x="600" y="0">UNREGISTERED</text><text fill="#eeeeee" stroke="none" font-family="Arial" font-size="24px" font-style="normal" font-weight="normal" text-decoration="none" x="600" y="30">UNREGISTERED</text><text fill="#eeeeee" stroke="none" font-family="Arial" font-size="24px" font-style="normal" font-weight="normal" text-decoration="none" x="600" y="60">UNREGISTERED</text><text fill="#eeeeee" stroke="none" font-family="Arial" font-size="24px" font-style="normal" font-weight="normal" text-decoration="none" x="600" y="90">UNREGISTERED</text><text fill="#eeeeee" stroke="none" font-family="Arial" font-size="24px" font-style="normal" font-weight="normal" text-decoration="none" x="600" y="120">UNREGISTERED</text><text fill="#eeeeee" stroke="none" font-family="Arial" font-size="24px" font-style="normal" font-weight="normal" text-decoration="none" x="600" y="150">UNREGISTERED</text><text fill="#eeeeee" stroke="none" font-family="Arial" font-size="24px" font-style="normal" font-weight="normal" text-decoration="none" x="600" y="180">UNREGISTERED</text><text fill="#eeeeee" stroke="none" font-family="Arial" font-size="24px" font-style="normal" font-weight="normal" text-decoration="none" x="600" y="210">UNREGISTERED</text><text fill="#eeeeee" stroke="none" font-family="Arial" font-size="24px" font-style="normal" font-weight="normal" text-decoration="none" x="600" y="240">UNREGISTERED</text><text fill="#eeeeee" stroke="none" font-family="Arial" font-size="24px" font-style="normal" font-weight="normal" text-decoration="none" x="600" y="270">UNREGISTERED</text><text fill="#eeeeee" stroke="none" font-family="Arial" font-size="24px" font-style="normal" font-weight="normal" text-decoration="none" x="600" y="300">UNREGISTERED</text><text fill="#eeeeee" stroke="none" font-family="Arial" font-size="24px" font-style="normal" font-weight="normal" text-decoration="none" x="600" y="330">UNREGISTERED</text><text fill="#eeeeee" stroke="none" font-family="Arial" font-size="24px" font-style="normal" font-weight="normal" text-decoration="none" x="600" y="360">UNREGISTERED</text><text fill="#eeeeee" stroke="none" font-family="Arial" font-size="24px" font-style="normal" font-weight="normal" text-decoration="none" x="600" y="390">UNREGISTERED</text><text fill="#eeeeee" stroke="none" font-family="Arial" font-size="24px" font-style="normal" font-weight="normal" text-decoration="none" x="600" y="420">UNREGISTERED</text><text fill="#eeeeee" stroke="none" font-family="Arial" font-size="24px" font-style="normal" font-weight="normal" text-decoration="none" x="600" y="450">UNREGISTERED</text><text fill="#eeeeee" stroke="none" font-family="Arial" font-size="24px" font-style="normal" font-weight="normal" text-decoration="none" x="600" y="480">UNREGISTERED</text><text fill="#eeeeee" stroke="none" font-family="Arial" font-size="24px" font-style="normal" font-weight="normal" text-decoration="none" x="600" y="510">UNREGISTERED</text><text fill="#eeeeee" stroke="none" font-family="Arial" font-size="24px" font-style="normal" font-weight="normal" text-decoration="none" x="600" y="540">UNREGISTERED</text><text fill="#eeeeee" stroke="none" font-family="Arial" font-size="24px" font-style="normal" font-weight="normal" text-decoration="none" x="800" y="0">UNREGISTERED</text><text fill="#eeeeee" stroke="none" font-family="Arial" font-size="24px" font-style="normal" font-weight="normal" text-decoration="none" x="800" y="30">UNREGISTERED</text><text fill="#eeeeee" stroke="none" font-family="Arial" font-size="24px" font-style="normal" font-weight="normal" text-decoration="none" x="800" y="60">UNREGISTERED</text><text fill="#eeeeee" stroke="none" font-family="Arial" font-size="24px" font-style="normal" font-weight="normal" text-decoration="none" x="800" y="90">UNREGISTERED</text><text fill="#eeeeee" stroke="none" font-family="Arial" font-size="24px" font-style="normal" font-weight="normal" text-decoration="none" x="800" y="120">UNREGISTERED</text><text fill="#eeeeee" stroke="none" font-family="Arial" font-size="24px" font-style="normal" font-weight="normal" text-decoration="none" x="800" y="150">UNREGISTERED</text><text fill="#eeeeee" stroke="none" font-family="Arial" font-size="24px" font-style="normal" font-weight="normal" text-decoration="none" x="800" y="180">UNREGISTERED</text><text fill="#eeeeee" stroke="none" font-family="Arial" font-size="24px" font-style="normal" font-weight="normal" text-decoration="none" x="800" y="210">UNREGISTERED</text><text fill="#eeeeee" stroke="none" font-family="Arial" font-size="24px" font-style="normal" font-weight="normal" text-decoration="none" x="800" y="240">UNREGISTERED</text><text fill="#eeeeee" stroke="none" font-family="Arial" font-size="24px" font-style="normal" font-weight="normal" text-decoration="none" x="800" y="270">UNREGISTERED</text><text fill="#eeeeee" stroke="none" font-family="Arial" font-size="24px" font-style="normal" font-weight="normal" text-decoration="none" x="800" y="300">UNREGISTERED</text><text fill="#eeeeee" stroke="none" font-family="Arial" font-size="24px" font-style="normal" font-weight="normal" text-decoration="none" x="800" y="330">UNREGISTERED</text><text fill="#eeeeee" stroke="none" font-family="Arial" font-size="24px" font-style="normal" font-weight="normal" text-decoration="none" x="800" y="360">UNREGISTERED</text><text fill="#eeeeee" stroke="none" font-family="Arial" font-size="24px" font-style="normal" font-weight="normal" text-decoration="none" x="800" y="390">UNREGISTERED</text><text fill="#eeeeee" stroke="none" font-family="Arial" font-size="24px" font-style="normal" font-weight="normal" text-decoration="none" x="800" y="420">UNREGISTERED</text><text fill="#eeeeee" stroke="none" font-family="Arial" font-size="24px" font-style="normal" font-weight="normal" text-decoration="none" x="800" y="450">UNREGISTERED</text><text fill="#eeeeee" stroke="none" font-family="Arial" font-size="24px" font-style="normal" font-weight="normal" text-decoration="none" x="800" y="480">UNREGISTERED</text><text fill="#eeeeee" stroke="none" font-family="Arial" font-size="24px" font-style="normal" font-weight="normal" text-decoration="none" x="800" y="510">UNREGISTERED</text><text fill="#eeeeee" stroke="none" font-family="Arial" font-size="24px" font-style="normal" font-weight="normal" text-decoration="none" x="800" y="540">UNREGISTERED</text><text fill="#eeeeee" stroke="none" font-family="Arial" font-size="24px" font-style="normal" font-weight="normal" text-decoration="none" x="1000" y="0">UNREGISTERED</text><text fill="#eeeeee" stroke="none" font-family="Arial" font-size="24px" font-style="normal" font-weight="normal" text-decoration="none" x="1000" y="30">UNREGISTERED</text><text fill="#eeeeee" stroke="none" font-family="Arial" font-size="24px" font-style="normal" font-weight="normal" text-decoration="none" x="1000" y="60">UNREGISTERED</text><text fill="#eeeeee" stroke="none" font-family="Arial" font-size="24px" font-style="normal" font-weight="normal" text-decoration="none" x="1000" y="90">UNREGISTERED</text><text fill="#eeeeee" stroke="none" font-family="Arial" font-size="24px" font-style="normal" font-weight="normal" text-decoration="none" x="1000" y="120">UNREGISTERED</text><text fill="#eeeeee" stroke="none" font-family="Arial" font-size="24px" font-style="normal" font-weight="normal" text-decoration="none" x="1000" y="150">UNREGISTERED</text><text fill="#eeeeee" stroke="none" font-family="Arial" font-size="24px" font-style="normal" font-weight="normal" text-decoration="none" x="1000" y="180">UNREGISTERED</text><text fill="#eeeeee" stroke="none" font-family="Arial" font-size="24px" font-style="normal" font-weight="normal" text-decoration="none" x="1000" y="210">UNREGISTERED</text><text fill="#eeeeee" stroke="none" font-family="Arial" font-size="24px" font-style="normal" font-weight="normal" text-decoration="none" x="1000" y="240">UNREGISTERED</text><text fill="#eeeeee" stroke="none" font-family="Arial" font-size="24px" font-style="normal" font-weight="normal" text-decoration="none" x="1000" y="270">UNREGISTERED</text><text fill="#eeeeee" stroke="none" font-family="Arial" font-size="24px" font-style="normal" font-weight="normal" text-decoration="none" x="1000" y="300">UNREGISTERED</text><text fill="#eeeeee" stroke="none" font-family="Arial" font-size="24px" font-style="normal" font-weight="normal" text-decoration="none" x="1000" y="330">UNREGISTERED</text><text fill="#eeeeee" stroke="none" font-family="Arial" font-size="24px" font-style="normal" font-weight="normal" text-decoration="none" x="1000" y="360">UNREGISTERED</text><text fill="#eeeeee" stroke="none" font-family="Arial" font-size="24px" font-style="normal" font-weight="normal" text-decoration="none" x="1000" y="390">UNREGISTERED</text><text fill="#eeeeee" stroke="none" font-family="Arial" font-size="24px" font-style="normal" font-weight="normal" text-decoration="none" x="1000" y="420">UNREGISTERED</text><text fill="#eeeeee" stroke="none" font-family="Arial" font-size="24px" font-style="normal" font-weight="normal" text-decoration="none" x="1000" y="450">UNREGISTERED</text><text fill="#eeeeee" stroke="none" font-family="Arial" font-size="24px" font-style="normal" font-weight="normal" text-decoration="none" x="1000" y="480">UNREGISTERED</text><text fill="#eeeeee" stroke="none" font-family="Arial" font-size="24px" font-style="normal" font-weight="normal" text-decoration="none" x="1000" y="510">UNREGISTERED</text><text fill="#eeeeee" stroke="none" font-family="Arial" font-size="24px" font-style="normal" font-weight="normal" text-decoration="none" x="1000" y="540">UNREGISTERED</text><text fill="#eeeeee" stroke="none" font-family="Arial" font-size="24px" font-style="normal" font-weight="normal" text-decoration="none" x="1200" y="0">UNREGISTERED</text><text fill="#eeeeee" stroke="none" font-family="Arial" font-size="24px" font-style="normal" font-weight="normal" text-decoration="none" x="1200" y="30">UNREGISTERED</text><text fill="#eeeeee" stroke="none" font-family="Arial" font-size="24px" font-style="normal" font-weight="normal" text-decoration="none" x="1200" y="60">UNREGISTERED</text><text fill="#eeeeee" stroke="none" font-family="Arial" font-size="24px" font-style="normal" font-weight="normal" text-decoration="none" x="1200" y="90">UNREGISTERED</text><text fill="#eeeeee" stroke="none" font-family="Arial" font-size="24px" font-style="normal" font-weight="normal" text-decoration="none" x="1200" y="120">UNREGISTERED</text><text fill="#eeeeee" stroke="none" font-family="Arial" font-size="24px" font-style="normal" font-weight="normal" text-decoration="none" x="1200" y="150">UNREGISTERED</text><text fill="#eeeeee" stroke="none" font-family="Arial" font-size="24px" font-style="normal" font-weight="normal" text-decoration="none" x="1200" y="180">UNREGISTERED</text><text fill="#eeeeee" stroke="none" font-family="Arial" font-size="24px" font-style="normal" font-weight="normal" text-decoration="none" x="1200" y="210">UNREGISTERED</text><text fill="#eeeeee" stroke="none" font-family="Arial" font-size="24px" font-style="normal" font-weight="normal" text-decoration="none" x="1200" y="240">UNREGISTERED</text><text fill="#eeeeee" stroke="none" font-family="Arial" font-size="24px" font-style="normal" font-weight="normal" text-decoration="none" x="1200" y="270">UNREGISTERED</text><text fill="#eeeeee" stroke="none" font-family="Arial" font-size="24px" font-style="normal" font-weight="normal" text-decoration="none" x="1200" y="300">UNREGISTERED</text><text fill="#eeeeee" stroke="none" font-family="Arial" font-size="24px" font-style="normal" font-weight="normal" text-decoration="none" x="1200" y="330">UNREGISTERED</text><text fill="#eeeeee" stroke="none" font-family="Arial" font-size="24px" font-style="normal" font-weight="normal" text-decoration="none" x="1200" y="360">UNREGISTERED</text><text fill="#eeeeee" stroke="none" font-family="Arial" font-size="24px" font-style="normal" font-weight="normal" text-decoration="none" x="1200" y="390">UNREGISTERED</text><text fill="#eeeeee" stroke="none" font-family="Arial" font-size="24px" font-style="normal" font-weight="normal" text-decoration="none" x="1200" y="420">UNREGISTERED</text><text fill="#eeeeee" stroke="none" font-family="Arial" font-size="24px" font-style="normal" font-weight="normal" text-decoration="none" x="1200" y="450">UNREGISTERED</text><text fill="#eeeeee" stroke="none" font-family="Arial" font-size="24px" font-style="normal" font-weight="normal" text-decoration="none" x="1200" y="480">UNREGISTERED</text><text fill="#eeeeee" stroke="none" font-family="Arial" font-size="24px" font-style="normal" font-weight="normal" text-decoration="none" x="1200" y="510">UNREGISTERED</text><text fill="#eeeeee" stroke="none" font-family="Arial" font-size="24px" font-style="normal" font-weight="normal" text-decoration="none" x="1200" y="540">UNREGISTERED</text><text fill="#eeeeee" stroke="none" font-family="Arial" font-size="24px" font-style="normal" font-weight="normal" text-decoration="none" x="1400" y="0">UNREGISTERED</text><text fill="#eeeeee" stroke="none" font-family="Arial" font-size="24px" font-style="normal" font-weight="normal" text-decoration="none" x="1400" y="30">UNREGISTERED</text><text fill="#eeeeee" stroke="none" font-family="Arial" font-size="24px" font-style="normal" font-weight="normal" text-decoration="none" x="1400" y="60">UNREGISTERED</text><text fill="#eeeeee" stroke="none" font-family="Arial" font-size="24px" font-style="normal" font-weight="normal" text-decoration="none" x="1400" y="90">UNREGISTERED</text><text fill="#eeeeee" stroke="none" font-family="Arial" font-size="24px" font-style="normal" font-weight="normal" text-decoration="none" x="1400" y="120">UNREGISTERED</text><text fill="#eeeeee" stroke="none" font-family="Arial" font-size="24px" font-style="normal" font-weight="normal" text-decoration="none" x="1400" y="150">UNREGISTERED</text><text fill="#eeeeee" stroke="none" font-family="Arial" font-size="24px" font-style="normal" font-weight="normal" text-decoration="none" x="1400" y="180">UNREGISTERED</text><text fill="#eeeeee" stroke="none" font-family="Arial" font-size="24px" font-style="normal" font-weight="normal" text-decoration="none" x="1400" y="210">UNREGISTERED</text><text fill="#eeeeee" stroke="none" font-family="Arial" font-size="24px" font-style="normal" font-weight="normal" text-decoration="none" x="1400" y="240">UNREGISTERED</text><text fill="#eeeeee" stroke="none" font-family="Arial" font-size="24px" font-style="normal" font-weight="normal" text-decoration="none" x="1400" y="270">UNREGISTERED</text><text fill="#eeeeee" stroke="none" font-family="Arial" font-size="24px" font-style="normal" font-weight="normal" text-decoration="none" x="1400" y="300">UNREGISTERED</text><text fill="#eeeeee" stroke="none" font-family="Arial" font-size="24px" font-style="normal" font-weight="normal" text-decoration="none" x="1400" y="330">UNREGISTERED</text><text fill="#eeeeee" stroke="none" font-family="Arial" font-size="24px" font-style="normal" font-weight="normal" text-decoration="none" x="1400" y="360">UNREGISTERED</text><text fill="#eeeeee" stroke="none" font-family="Arial" font-size="24px" font-style="normal" font-weight="normal" text-decoration="none" x="1400" y="390">UNREGISTERED</text><text fill="#eeeeee" stroke="none" font-family="Arial" font-size="24px" font-style="normal" font-weight="normal" text-decoration="none" x="1400" y="420">UNREGISTERED</text><text fill="#eeeeee" stroke="none" font-family="Arial" font-size="24px" font-style="normal" font-weight="normal" text-decoration="none" x="1400" y="450">UNREGISTERED</text><text fill="#eeeeee" stroke="none" font-family="Arial" font-size="24px" font-style="normal" font-weight="normal" text-decoration="none" x="1400" y="480">UNREGISTERED</text><text fill="#eeeeee" stroke="none" font-family="Arial" font-size="24px" font-style="normal" font-weight="normal" text-decoration="none" x="1400" y="510">UNREGISTERED</text><text fill="#eeeeee" stroke="none" font-family="Arial" font-size="24px" font-style="normal" font-weight="normal" text-decoration="none" x="1400" y="540">UNREGISTERED</text><g transform="translate(-446,2) scale(1,1)"><path fill="none" stroke="#000000" d="M 456 8 L 1976 8 L 1976 536 L 456 536 L 456 8" stroke-miterlimit="10"/></g><g transform="translate(-446,2) scale(1,1)"><path fill="#ffffff" stroke="none" d="M 456 8 L 456 30 L 612.181640625 30 L 623.181640625 19 L 623.181640625 8 L 456 8"/></g><g transform="translate(-446,2) scale(1,1)"><path fill="none" stroke="#000000" d="M 456 8 L 456 30 L 612.181640625 30 L 623.181640625 19 L 623.181640625 8 L 456 8 L 456 8" stroke-miterlimit="10"/></g><g transform="translate(-446,2) scale(1,1)"><g><path fill="none" stroke="none"/><text fill="#000000" stroke="none" font-family="Arial" font-size="13px" font-style="normal" font-weight="normal" text-decoration="none" x="480.72998046875" y="23.7099609375">Referee Define teams</text></g></g><g transform="translate(-446,2) scale(1,1)"><g><path fill="none" stroke="none"/><text fill="#000000" stroke="none" font-family="Arial" font-size="13px" font-style="normal" font-weight="bold" text-decoration="none" x="460.279541015625" y="23.7099609375">sd</text></g></g><g transform="translate(-446,2) scale(1,1)"><path fill="#ffffff" stroke="none" d="M 676.257676669034 47.3 C 676.257676669034 43.82060576 679.136078391216 41 682.686767578125 41 C 686.237456765034 41 689.1158584872159 43.82060576 689.1158584872159 47.3 C 689.1158584872159 50.779394239999995 686.237456765034 53.6 682.686767578125 53.6 C 679.136078391216 53.6 676.257676669034 50.779394239999995 676.257676669034 47.3 Z"/></g><g transform="translate(-446,2) scale(1,1)"><path fill="none" stroke="#000000" d="M 676.257676669034 47.3 C 676.257676669034 43.82060576 679.136078391216 41 682.686767578125 41 C 686.237456765034 41 689.1158584872159 43.82060576 689.1158584872159 47.3 C 689.1158584872159 50.779394239999995 686.237456765034 53.6 682.686767578125 53.6 C 679.136078391216 53.6 676.257676669034 50.779394239999995 676.257676669034 47.3 Z" stroke-miterlimit="10"/></g><g transform="translate(-446,2) scale(1,1)"><path fill="none" stroke="#000000" d="M 682.686767578125 53.6 L 682.686767578125 66.4" stroke-miterlimit="10"/></g><g transform="translate(-446,2) scale(1,1)"><path fill="none" stroke="#000000" d="M 675.8794948508522 58.4 L 689.4940403053977 58.4" stroke-miterlimit="10"/></g><g transform="translate(-446,2) scale(1,1)"><path fill="none" stroke="#000000" d="M 682.686767578125 66.4 L 673.2322221235795 79" stroke-miterlimit="10"/></g><g transform="translate(-446,2) scale(1,1)"><path fill="none" stroke="#000000" d="M 682.686767578125 66.4 L 692.1413130326704 79" stroke-miterlimit="10"/></g><g transform="translate(-446,2) scale(1,1)"><g><path fill="none" stroke="none"/><text fill="#000000" stroke="none" font-family="Arial" font-size="13px" font-style="normal" font-weight="bold" text-decoration="none" x="628.5" y="97.7099609375">Lifeline1: Referee</text></g></g><g transform="translate(-446,2) scale(1,1)"><path fill="none" stroke="#000000" d="M 683.5 105 L 683.5 528" stroke-miterlimit="10" stroke-dasharray="3"/></g><g transform="translate(-446,2) scale(1,1)"><rect fill="#C0C0C0" stroke="none" x="846" y="47" width="191.64990234375" height="39" opacity="0.2"/></g><g transform="translate(-446,2) scale(1,1)"><rect fill="#ffffff" stroke="none" x="839" y="40" width="191.64990234375" height="39"/></g><g transform="translate(-446,2) scale(1,1)"><path fill="none" stroke="#000000" d="M 839 40 L 1030.64990234375 40 L 1030.64990234375 79 L 839 79 L 839 40 Z Z" stroke-miterlimit="10"/></g><g transform="translate(-446,2) scale(1,1)"><g><path fill="none" stroke="none"/><text fill="#000000" stroke="none" font-family="Arial" font-size="13px" font-style="normal" font-weight="bold" text-decoration="none" x="848.5" y="57.7099609375">Lifeline2: System Controller</text></g></g><g transform="translate(-446,2) scale(1,1)"><path fill="none" stroke="#000000" d="M 935.5 80 L 935.5 526" stroke-miterlimit="10" stroke-dasharray="3"/></g><g transform="translate(-446,2) scale(1,1)"><rect fill="#C0C0C0" stroke="none" x="1139" y="47" width="119.90234375" height="39" opacity="0.2"/></g><g transform="translate(-446,2) scale(1,1)"><rect fill="#ffffff" stroke="none" x="1132" y="40" width="119.90234375" height="39"/></g><g transform="translate(-446,2) scale(1,1)"><path fill="none" stroke="#000000" d="M 1132 40 L 1251.90234375 40 L 1251.90234375 79 L 1132 79 L 1132 40 Z Z" stroke-miterlimit="10"/></g><g transform="translate(-446,2) scale(1,1)"><g><path fill="none" stroke="none"/><text fill="#000000" stroke="none" font-family="Arial" font-size="13px" font-style="normal" font-weight="bold" text-decoration="none" x="1141.5" y="57.7099609375">Lifeline3: Teams</text></g></g><g transform="translate(-446,2) scale(1,1)"><path fill="none" stroke="#000000" d="M 1192.5 80 L 1192.5 534" stroke-miterlimit="10" stroke-dasharray="3"/></g><g transform="translate(-446,2) scale(1,1)"><rect fill="#C0C0C0" stroke="none" x="1386" y="47" width="206.8271484375" height="39" opacity="0.2"/></g><g transform="translate(-446,2) scale(1,1)"><rect fill="#ffffff" stroke="none" x="1379" y="40" width="206.8271484375" height="39"/></g><g transform="translate(-446,2) scale(1,1)"><path fill="none" stroke="#000000" d="M 1379 40 L 1585.8271484375 40 L 1585.8271484375 79 L 1379 79 L 1379 40 Z Z" stroke-miterlimit="10"/></g><g transform="translate(-446,2) scale(1,1)"><g><path fill="none" stroke="none"/><text fill="#000000" stroke="none" font-family="Arial" font-size="13px" font-style="normal" font-weight="bold" text-decoration="none" x="1388.5" y="57.7099609375">Lifeline4: UI Abstract Interface</text></g></g><g transform="translate(-446,2) scale(1,1)"><path fill="none" stroke="#000000" d="M 1483.5 80 L 1483.5 520" stroke-miterlimit="10" stroke-dasharray="3"/></g><g transform="translate(-446,2) scale(1,1)"><rect fill="#C0C0C0" stroke="none" x="1756" y="47" width="212.603515625" height="39" opacity="0.2"/></g><g transform="translate(-446,2) scale(1,1)"><rect fill="#ffffff" stroke="none" x="1749" y="40" width="212.603515625" height="39"/></g><g transform="translate(-446,2) scale(1,1)"><path fill="none" stroke="#000000" d="M 1749 40 L 1961.603515625 40 L 1961.603515625 79 L 1749 79 L 1749 40 Z Z" stroke-miterlimit="10"/></g><g transform="translate(-446,2) scale(1,1)"><g><path fill="none" stroke="none"/><text fill="#000000" stroke="none" font-family="Arial" font-size="13px" font-style="normal" font-weight="bold" text-decoration="none" x="1758.5" y="57.7099609375">Lifeline5: DB Abstract Interface</text></g></g><g transform="translate(-446,2) scale(1,1)"><path fill="none" stroke="#000000" d="M 1856.5 80 L 1856.5 530" stroke-miterlimit="10" stroke-dasharray="3"/></g><g transform="translate(-446,2) scale(1,1)"><path fill="none" stroke="#000000" d="M 683 128 L 928 128" stroke-miterlimit="10"/></g><g transform="translate(-446,2) scale(1,1)"><path fill="#000000" stroke="none" d="M 917.8373251423759 132.209517756016 L 928 128 L 917.8373251423758 123.79048224398402"/></g><g transform="translate(-446,2) scale(1,1)"><path fill="none" stroke="#000000" d="M 917.8373251423759 132.209517756016 L 928 128 L 917.8373251423758 123.79048224398402 L 917.8373251423759 132.209517756016" stroke-miterlimit="10"/></g><g transform="translate(-446,2) scale(1,1)"><g><path fill="none" stroke="none"/><text fill="#000000" stroke="none" font-family="Arial" font-size="13px" font-style="normal" font-weight="normal" text-decoration="none" x="759.95361328125" y="122.7099609375">1 : *define team</text></g></g><g transform="translate(-446,2) scale(1,1)"><rect fill="#ffffff" stroke="none" x="928" y="128" width="13" height="352"/></g><g transform="translate(-446,2) scale(1,1)"><path fill="none" stroke="#000000" d="M 928 128 L 941 128 L 941 480 L 928 480 L 928 128 Z Z" stroke-miterlimit="10"/></g><g transform="translate(-446,2) scale(1,1)"><path fill="none" stroke="#000000" d="M 941 144 L 971 144 L 971 164 L 948 164" stroke-miterlimit="10"/></g><g transform="translate(-446,2) scale(1,1)"><path fill="#000000" stroke="none" d="M 958.1626748576241 159.790482243984 L 948 164 L 958.1626748576241 168.209517756016"/></g><g transform="translate(-446,2) scale(1,1)"><path fill="none" stroke="#000000" d="M 958.1626748576241 159.790482243984 L 948 164 L 958.1626748576241 168.209517756016 L 958.1626748576241 159.790482243984" stroke-miterlimit="10"/></g><g transform="translate(-446,2) scale(1,1)"><g><path fill="none" stroke="none"/><text fill="#000000" stroke="none" font-family="Arial" font-size="13px" font-style="normal" font-weight="normal" text-decoration="none" x="974.5" y="157.7099609375">2 : teams amount less then 16</text></g></g><g transform="translate(-446,2) scale(1,1)"><rect fill="#ffffff" stroke="none" x="935" y="164" width="13" height="28"/></g><g transform="translate(-446,2) scale(1,1)"><path fill="none" stroke="#000000" d="M 935 164 L 948 164 L 948 192 L 935 192 L 935 164 Z Z" stroke-miterlimit="10"/></g><g transform="translate(-446,2) scale(1,1)"><path fill="none" stroke="#000000" d="M 935 168 L 683 168" stroke-miterlimit="10" stroke-dasharray="3"/></g><g transform="translate(-446,2) scale(1,1)"><path fill="none" stroke="#000000" d="M 693.1626748576241 163.790482243984 L 683 168 L 693.1626748576241 172.209517756016" stroke-miterlimit="10"/></g><g transform="translate(-446,2) scale(1,1)"><g><path fill="none" stroke="none"/><text fill="#000000" stroke="none" font-family="Arial" font-size="13px" font-style="normal" font-weight="normal" text-decoration="none" x="742.5" y="182.7099609375">3 : [ too less of teams ]</text></g></g><g transform="translate(-446,2) scale(1,1)"><path fill="none" stroke="#000000" d="M 941 203 L 1185 203" stroke-miterlimit="10"/></g><g transform="translate(-446,2) scale(1,1)"><path fill="#000000" stroke="none" d="M 1174.837325142376 207.209517756016 L 1185 203 L 1174.837325142376 198.790482243984"/></g><g transform="translate(-446,2) scale(1,1)"><path fill="none" stroke="#000000" d="M 1174.837325142376 207.209517756016 L 1185 203 L 1174.837325142376 198.790482243984 L 1174.837325142376 207.209517756016" stroke-miterlimit="10"/></g><g transform="translate(-446,2) scale(1,1)"><g><path fill="none" stroke="none"/><text fill="#000000" stroke="none" font-family="Arial" font-size="13px" font-style="normal" font-weight="normal" text-decoration="none" x="1000.5" y="197.7099609375">4 : get new team data</text></g></g><g transform="translate(-446,2) scale(1,1)"><rect fill="#ffffff" stroke="none" x="1185" y="203" width="13" height="157"/></g><g transform="translate(-446,2) scale(1,1)"><path fill="none" stroke="#000000" d="M 1185 203 L 1198 203 L 1198 360 L 1185 360 L 1185 203 Z Z" stroke-miterlimit="10"/></g><g transform="translate(-446,2) scale(1,1)"><path fill="none" stroke="#000000" d="M 1198 208 L 1476 208" stroke-miterlimit="10"/></g><g transform="translate(-446,2) scale(1,1)"><path fill="#000000" stroke="none" d="M 1465.837325142376 212.209517756016 L 1476 208 L 1465.837325142376 203.790482243984"/></g><g transform="translate(-446,2) scale(1,1)"><path fill="none" stroke="#000000" d="M 1465.837325142376 212.209517756016 L 1476 208 L 1465.837325142376 203.790482243984 L 1465.837325142376 212.209517756016" stroke-miterlimit="10"/></g><g transform="translate(-446,2) scale(1,1)"><g><path fill="none" stroke="none"/><text fill="#000000" stroke="none" font-family="Arial" font-size="13px" font-style="normal" font-weight="normal" text-decoration="none" x="1253.97998046875" y="202.7099609375">5 : create new dialog(details)</text></g></g><g transform="translate(-446,2) scale(1,1)"><rect fill="#ffffff" stroke="none" x="1476" y="208" width="13" height="128"/></g><g transform="translate(-446,2) scale(1,1)"><path fill="none" stroke="#000000" d="M 1476 208 L 1489 208 L 1489 336 L 1476 336 L 1476 208 Z Z" stroke-miterlimit="10"/></g><g transform="translate(-446,2) scale(1,1)"><path fill="none" stroke="#000000" d="M 1489 216 L 1519 216 L 1519 236 L 1496 236" stroke-miterlimit="10"/></g><g transform="translate(-446,2) scale(1,1)"><path fill="#000000" stroke="none" d="M 1506.162674857624 231.790482243984 L 1496 236 L 1506.162674857624 240.209517756016"/></g><g transform="translate(-446,2) scale(1,1)"><path fill="none" stroke="#000000" d="M 1506.162674857624 231.790482243984 L 1496 236 L 1506.162674857624 240.209517756016 L 1506.162674857624 231.790482243984" stroke-miterlimit="10"/></g><g transform="translate(-446,2) scale(1,1)"><g><path fill="none" stroke="none"/><text fill="#000000" stroke="none" font-family="Arial" font-size="13px" font-style="normal" font-weight="normal" text-decoration="none" x="1535.5" y="226.7099609375">6 : create dialog with needed widgets</text></g></g><g transform="translate(-446,2) scale(1,1)"><rect fill="#ffffff" stroke="none" x="1483" y="236" width="13" height="28"/></g><g transform="translate(-446,2) scale(1,1)"><path fill="none" stroke="#000000" d="M 1483 236 L 1496 236 L 1496 264 L 1483 264 L 1483 236 Z Z" stroke-miterlimit="10"/></g><g transform="translate(-446,2) scale(1,1)"><path fill="none" stroke="#000000" d="M 1489 272 L 1519 272 L 1519 292 L 1496 292" stroke-miterlimit="10"/></g><g transform="translate(-446,2) scale(1,1)"><path fill="#000000" stroke="none" d="M 1506.162674857624 287.790482243984 L 1496 292 L 1506.162674857624 296.209517756016"/></g><g transform="translate(-446,2) scale(1,1)"><path fill="none" stroke="#000000" d="M 1506.162674857624 287.790482243984 L 1496 292 L 1506.162674857624 296.209517756016 L 1506.162674857624 287.790482243984" stroke-miterlimit="10"/></g><g transform="translate(-446,2) scale(1,1)"><g><path fill="none" stroke="none"/><text fill="#000000" stroke="none" font-family="Arial" font-size="13px" font-style="normal" font-weight="normal" text-decoration="none" x="1527.5" y="285.7099609375">7 : input data from user</text></g></g><g transform="translate(-446,2) scale(1,1)"><rect fill="#ffffff" stroke="none" x="1483" y="292" width="13" height="28"/></g><g transform="translate(-446,2) scale(1,1)"><path fill="none" stroke="#000000" d="M 1483 292 L 1496 292 L 1496 320 L 1483 320 L 1483 292 Z Z" stroke-miterlimit="10"/></g><g transform="translate(-446,2) scale(1,1)"><path fill="none" stroke="#000000" d="M 1476 320 L 1198 320" stroke-miterlimit="10" stroke-dasharray="3"/></g><g transform="translate(-446,2) scale(1,1)"><path fill="none" stroke="#000000" d="M 1208.162674857624 315.790482243984 L 1198 320 L 1208.162674857624 324.209517756016" stroke-miterlimit="10"/></g><g transform="translate(-446,2) scale(1,1)"><g><path fill="none" stroke="none"/><text fill="#000000" stroke="none" font-family="Arial" font-size="13px" font-style="normal" font-weight="normal" text-decoration="none" x="1248.114990234375" y="334.7099609375">8 : return defined widgets data</text></g></g><g transform="translate(-446,2) scale(1,1)"><path fill="none" stroke="#000000" d="M 1185 352 L 941 352" stroke-miterlimit="10" stroke-dasharray="3"/></g><g transform="translate(-446,2) scale(1,1)"><path fill="none" stroke="#000000" d="M 951.1626748576241 347.790482243984 L 941 352 L 951.1626748576241 356.209517756016" stroke-miterlimit="10"/></g><g transform="translate(-446,2) scale(1,1)"><g><path fill="none" stroke="none"/><text fill="#000000" stroke="none" font-family="Arial" font-size="13px" font-style="normal" font-weight="normal" text-decoration="none" x="1013.765869140625" y="366.7099609375">9 : [ not defined ]</text></g></g><g transform="translate(-446,2) scale(1,1)"><path fill="none" stroke="#000000" d="M 928 368 L 683 368" stroke-miterlimit="10" stroke-dasharray="3"/></g><g transform="translate(-446,2) scale(1,1)"><path fill="none" stroke="#000000" d="M 693.1626748576241 363.790482243984 L 683 368 L 693.1626748576241 372.209517756016" stroke-miterlimit="10"/></g><g transform="translate(-446,2) scale(1,1)"><g><path fill="none" stroke="none"/><text fill="#000000" stroke="none" font-family="Arial" font-size="13px" font-style="normal" font-weight="normal" text-decoration="none" x="752.15087890625" y="382.7099609375">10 : [ not defined ]</text></g></g><g transform="translate(-446,2) scale(1,1)"><path fill="none" stroke="#000000" d="M 941 392 L 1185 392" stroke-miterlimit="10"/></g><g transform="translate(-446,2) scale(1,1)"><path fill="#000000" stroke="none" d="M 1174.837325142376 396.209517756016 L 1185 392 L 1174.837325142376 387.790482243984"/></g><g transform="translate(-446,2) scale(1,1)"><path fill="none" stroke="#000000" d="M 1174.837325142376 396.209517756016 L 1185 392 L 1174.837325142376 387.790482243984 L 1174.837325142376 396.209517756016" stroke-miterlimit="10"/></g><g transform="translate(-446,2) scale(1,1)"><g><path fill="none" stroke="none"/><text fill="#000000" stroke="none" font-family="Arial" font-size="13px" font-style="normal" font-weight="normal" text-decoration="none" x="986.5" y="386.7099609375">11 : add new team(details)</text></g></g><g transform="translate(-446,2) scale(1,1)"><rect fill="#ffffff" stroke="none" x="1185" y="392" width="13" height="120"/></g><g transform="translate(-446,2) scale(1,1)"><path fill="none" stroke="#000000" d="M 1185 392 L 1198 392 L 1198 512 L 1185 512 L 1185 392 Z Z" stroke-miterlimit="10"/></g><g transform="translate(-446,2) scale(1,1)"><path fill="none" stroke="#000000" d="M 1198 392 L 1228 392 L 1228 412 L 1205 412" stroke-miterlimit="10"/></g><g transform="translate(-446,2) scale(1,1)"><path fill="#000000" stroke="none" d="M 1215.162674857624 407.790482243984 L 1205 412 L 1215.162674857624 416.209517756016"/></g><g transform="translate(-446,2) scale(1,1)"><path fill="none" stroke="#000000" d="M 1215.162674857624 407.790482243984 L 1205 412 L 1215.162674857624 416.209517756016 L 1215.162674857624 407.790482243984" stroke-miterlimit="10"/></g><g transform="translate(-446,2) scale(1,1)"><g><path fill="none" stroke="none"/><text fill="#000000" stroke="none" font-family="Arial" font-size="13px" font-style="normal" font-weight="normal" text-decoration="none" x="1238.5" y="405.7099609375">12 : check data</text></g></g><g transform="translate(-446,2) scale(1,1)"><rect fill="#ffffff" stroke="none" x="1192" y="412" width="13" height="36"/></g><g transform="translate(-446,2) scale(1,1)"><path fill="none" stroke="#000000" d="M 1192 412 L 1205 412 L 1205 448 L 1192 448 L 1192 412 Z Z" stroke-miterlimit="10"/></g><g transform="translate(-446,2) scale(1,1)"><path fill="none" stroke="#000000" d="M 1205 435 L 1476 435" stroke-miterlimit="10"/></g><g transform="translate(-446,2) scale(1,1)"><path fill="#000000" stroke="none" d="M 1465.837325142376 439.209517756016 L 1476 435 L 1465.837325142376 430.790482243984"/></g><g transform="translate(-446,2) scale(1,1)"><path fill="none" stroke="#000000" d="M 1465.837325142376 439.209517756016 L 1476 435 L 1465.837325142376 430.790482243984 L 1465.837325142376 439.209517756016" stroke-miterlimit="10"/></g><g transform="translate(-446,2) scale(1,1)"><g><path fill="none" stroke="none"/><text fill="#000000" stroke="none" font-family="Arial" font-size="13px" font-style="normal" font-weight="normal" text-decoration="none" x="1220.5" y="429.7099609375">13 : [ data incorrect ] show error message</text></g></g><g transform="translate(-446,2) scale(1,1)"><rect fill="#ffffff" stroke="none" x="1476" y="435" width="13" height="37"/></g><g transform="translate(-446,2) scale(1,1)"><path fill="none" stroke="#000000" d="M 1476 435 L 1489 435 L 1489 472 L 1476 472 L 1476 435 Z Z" stroke-miterlimit="10"/></g><g transform="translate(-446,2) scale(1,1)"><path fill="none" stroke="#000000" d="M 1476 456 L 1198 456" stroke-miterlimit="10" stroke-dasharray="3"/></g><g transform="translate(-446,2) scale(1,1)"><path fill="none" stroke="#000000" d="M 1208.162674857624 451.790482243984 L 1198 456 L 1208.162674857624 460.209517756016" stroke-miterlimit="10"/></g><g transform="translate(-446,2) scale(1,1)"><g><path fill="none" stroke="none"/><text fill="#000000" stroke="none" font-family="Arial" font-size="13px" font-style="normal" font-weight="normal" text-decoration="none" x="1298.90087890625" y="470.7099609375">14 : [ return ]</text></g></g><g transform="translate(-446,2) scale(1,1)"><path fill="none" stroke="#000000" d="M 1185 464 L 941 464" stroke-miterlimit="10" stroke-dasharray="3"/></g><g transform="translate(-446,2) scale(1,1)"><path fill="none" stroke="#000000" d="M 951.1626748576241 459.790482243984 L 941 464 L 951.1626748576241 468.209517756016" stroke-miterlimit="10"/></g><g transform="translate(-446,2) scale(1,1)"><g><path fill="none" stroke="none"/><text fill="#000000" stroke="none" font-family="Arial" font-size="13px" font-style="normal" font-weight="normal" text-decoration="none" x="1002.5" y="478.7099609375">15 : [ data incorrect ]</text></g></g><g transform="translate(-446,2) scale(1,1)"><path fill="none" stroke="#000000" d="M 928 472 L 683 472" stroke-miterlimit="10" stroke-dasharray="3"/></g><g transform="translate(-446,2) scale(1,1)"><path fill="none" stroke="#000000" d="M 693.1626748576241 467.790482243984 L 683 472 L 693.1626748576241 476.209517756016" stroke-miterlimit="10"/></g><g transform="translate(-446,2) scale(1,1)"><g><path fill="none" stroke="none"/><text fill="#000000" stroke="none" font-family="Arial" font-size="13px" font-style="normal" font-weight="normal" text-decoration="none" x="744.5" y="486.7099609375">16 : [ data incorrect ]</text></g></g><g transform="translate(-446,2) scale(1,1)"><path fill="none" stroke="#000000" d="M 1198 488 L 1849 488" stroke-miterlimit="10"/></g><g transform="translate(-446,2) scale(1,1)"><path fill="#000000" stroke="none" d="M 1838.837325142376 492.209517756016 L 1849 488 L 1838.837325142376 483.790482243984"/></g><g transform="translate(-446,2) scale(1,1)"><path fill="none" stroke="#000000" d="M 1838.837325142376 492.209517756016 L 1849 488 L 1838.837325142376 483.790482243984 L 1838.837325142376 492.209517756016" stroke-miterlimit="10"/></g><g transform="translate(-446,2) scale(1,1)"><g><path fill="none" stroke="none"/><text fill="#000000" stroke="none" font-family="Arial" font-size="13px" font-style="normal" font-weight="normal" text-decoration="none" x="1528.30908203125" y="482.7099609375">17 : add data to db(details)</text></g></g><g transform="translate(-446,2) scale(1,1)"><rect fill="#ffffff" stroke="none" x="1849" y="488" width="13" height="28"/></g><g transform="translate(-446,2) scale(1,1)"><path fill="none" stroke="#000000" d="M 1849 488 L 1862 488 L 1862 516 L 1849 516 L 1849 488 Z Z" stroke-miterlimit="10"/></g><g transform="translate(-446,2) scale(1,1)"><path fill="none" stroke="#000000" d="M 1849 496 L 1198 496" stroke-miterlimit="10" stroke-dasharray="3"/></g><g transform="translate(-446,2) scale(1,1)"><path fill="none" stroke="#000000" d="M 1208.162674857624 491.790482243984 L 1198 496 L 1208.162674857624 500.209517756016" stroke-miterlimit="10"/></g><g transform="translate(-446,2) scale(1,1)"><g><path fill="none" stroke="none"/><text fill="#000000" stroke="none" font-family="Arial" font-size="13px" font-style="normal" font-weight="normal" text-decoration="none" x="1491.924072265625" y="510.53857421875">18 : return</text></g></g><g transform="translate(-446,2) scale(1,1)"><path fill="none" stroke="#000000" d="M 1185 504 L 683 504" stroke-miterlimit="10" stroke-dasharray="3"/></g><g transform="translate(-446,2) scale(1,1)"><path fill="none" stroke="#000000" d="M 693.1626748576241 499.790482243984 L 683 504 L 693.1626748576241 508.209517756016" stroke-miterlimit="10"/></g><g transform="translate(-446,2) scale(1,1)"><g><path fill="none" stroke="none"/><text fill="#000000" stroke="none" font-family="Arial" font-size="13px" font-style="normal" font-weight="normal" text-decoration="none" x="903.831298828125" y="518.53857421875">19 : return</text></g></g></g></svg>