<svg version="1.1" xmlns="http://www.w3.org/2000/svg" xmlns:xlink="http://www.w3.org/1999/xlink" width="694.17724609375" height="572"><defs/><g><text fill="#eeeeee" stroke="none" font-family="Arial" font-size="24px" font-style="normal" font-weight="normal" text-decoration="none" x="0" y="0">UNREGISTERED</text><text fill="#eeeeee" stroke="none" font-family="Arial" font-size="24px" font-style="normal" font-weight="normal" text-decoration="none" x="0" y="30">UNREGISTERED</text><text fill="#eeeeee" stroke="none" font-family="Arial" font-size="24px" font-style="normal" font-weight="normal" text-decoration="none" x="0" y="60">UNREGISTERED</text><text fill="#eeeeee" stroke="none" font-family="Arial" font-size="24px" font-style="normal" font-weight="normal" text-decoration="none" x="0" y="90">UNREGISTERED</text><text fill="#eeeeee" stroke="none" font-family="Arial" font-size="24px" font-style="normal" font-weight="normal" text-decoration="none" x="0" y="120">UNREGISTERED</text><text fill="#eeeeee" stroke="none" font-family="Arial" font-size="24px" font-style="normal" font-weight="normal" text-decoration="none" x="0" y="150">UNREGISTERED</text><text fill="#eeeeee" stroke="none" font-family="Arial" font-size="24px" font-style="normal" font-weight="normal" text-decoration="none" x="0" y="180">UNREGISTERED</text><text fill="#eeeeee" stroke="none" font-family="Arial" font-size="24px" font-style="normal" font-weight="normal" text-decoration="none" x="0" y="210">UNREGISTERED</text><text fill="#eeeeee" stroke="none" font-family="Arial" font-size="24px" font-style="normal" font-weight="normal" text-decoration="none" x="0" y="240">UNREGISTERED</text><text fill="#eeeeee" stroke="none" font-family="Arial" font-size="24px" font-style="normal" font-weight="normal" text-decoration="none" x="0" y="270">UNREGISTERED</text><text fill="#eeeeee" stroke="none" font-family="Arial" font-size="24px" font-style="normal" font-weight="normal" text-decoration="none" x="0" y="300">UNREGISTERED</text><text fill="#eeeeee" stroke="none" font-family="Arial" font-size="24px" font-style="normal" font-weight="normal" text-decoration="none" x="0" y="330">UNREGISTERED</text><text fill="#eeeeee" stroke="none" font-family="Arial" font-size="24px" font-style="normal" font-weight="normal" text-decoration="none" x="0" y="360">UNREGISTERED</text><text fill="#eeeeee" stroke="none" font-family="Arial" font-size="24px" font-style="normal" font-weight="normal" text-decoration="none" x="0" y="390">UNREGISTERED</text><text fill="#eeeeee" stroke="none" font-family="Arial" font-size="24px" font-style="normal" font-weight="normal" text-decoration="none" x="0" y="420">UNREGISTERED</text><text fill="#eeeeee" stroke="none" font-family="Arial" font-size="24px" font-style="normal" font-weight="normal" text-decoration="none" x="0" y="450">UNREGISTERED</text><text fill="#eeeeee" stroke="none" font-family="Arial" font-size="24px" font-style="normal" font-weight="normal" text-decoration="none" x="0" y="480">UNREGISTERED</text><text fill="#eeeeee" stroke="none" font-family="Arial" font-size="24px" font-style="normal" font-weight="normal" text-decoration="none" x="0" y="510">UNREGISTERED</text><text fill="#eeeeee" stroke="none" font-family="Arial" font-size="24px" font-style="normal" font-weight="normal" text-decoration="none" x="0" y="540">UNREGISTERED</text><text fill="#eeeeee" stroke="none" font-family="Arial" font-size="24px" font-style="normal" font-weight="normal" text-decoration="none" x="0" y="570">UNREGISTERED</text><text fill="#eeeeee" stroke="none" font-family="Arial" font-size="24px" font-style="normal" font-weight="normal" text-decoration="none" x="200" y="0">UNREGISTERED</text><text fill="#eeeeee" stroke="none" font-family="Arial" font-size="24px" font-style="normal" font-weight="normal" text-decoration="none" x="200" y="30">UNREGISTERED</text><text fill="#eeeeee" stroke="none" font-family="Arial" font-size="24px" font-style="normal" font-weight="normal" text-decoration="none" x="200" y="60">UNREGISTERED</text><text fill="#eeeeee" stroke="none" font-family="Arial" font-size="24px" font-style="normal" font-weight="normal" text-decoration="none" x="200" y="90">UNREGISTERED</text><text fill="#eeeeee" stroke="none" font-family="Arial" font-size="24px" font-style="normal" font-weight="normal" text-decoration="none" x="200" y="120">UNREGISTERED</text><text fill="#eeeeee" stroke="none" font-family="Arial" font-size="24px" font-style="normal" font-weight="normal" text-decoration="none" x="200" y="150">UNREGISTERED</text><text fill="#eeeeee" stroke="none" font-family="Arial" font-size="24px" font-style="normal" font-weight="normal" text-decoration="none" x="200" y="180">UNREGISTERED</text><text fill="#eeeeee" stroke="none" font-family="Arial" font-size="24px" font-style="normal" font-weight="normal" text-decoration="none" x="200" y="210">UNREGISTERED</text><text fill="#eeeeee" stroke="none" font-family="Arial" font-size="24px" font-style="normal" font-weight="normal" text-decoration="none" x="200" y="240">UNREGISTERED</text><text fill="#eeeeee" stroke="none" font-family="Arial" font-size="24px" font-style="normal" font-weight="normal" text-decoration="none" x="200" y="270">UNREGISTERED</text><text fill="#eeeeee" stroke="none" font-family="Arial" font-size="24px" font-style="normal" font-weight="normal" text-decoration="none" x="200" y="300">UNREGISTERED</text><text fill="#eeeeee" stroke="none" font-family="Arial" font-size="24px" font-style="normal" font-weight="normal" text-decoration="none" x="200" y="330">UNREGISTERED</text><text fill="#eeeeee" stroke="none" font-family="Arial" font-size="24px" font-style="normal" font-weight="normal" text-decoration="none" x="200" y="360">UNREGISTERED</text><text fill="#eeeeee" stroke="none" font-family="Arial" font-size="24px" font-style="normal" font-weight="normal" text-decoration="none" x="200" y="390">UNREGISTERED</text><text fill="#eeeeee" stroke="none" font-family="Arial" font-size="24px" font-style="normal" font-weight="normal" text-decoration="none" x="200" y="420">UNREGISTERED</text><text fill="#eeeeee" stroke="none" font-family="Arial" font-size="24px" font-style="normal" font-weight="normal" text-decoration="none" x="200" y="450">UNREGISTERED</text><text fill="#eeeeee" stroke="none" font-family="Arial" font-size="24px" font-style="normal" font-weight="normal" text-decoration="none" x="200" y="480">UNREGISTERED</text><text fill="#eeeeee" stroke="none" font-family="Arial" font-size="24px" font-style="normal" font-weight="normal" text-decoration="none" x="200" y="510">UNREGISTERED</text><text fill="#eeeeee" stroke="none" font-family="Arial" font-size="24px" font-style="normal" font-weight="normal" text-decoration="none" x="200" y="540">UNREGISTERED</text><text fill="#eeeeee" stroke="none" font-family="Arial" font-size="24px" font-style="normal" font-weight="normal" text-decoration="none" x="200" y="570">UNREGISTERED</text><text fill="#eeeeee" stroke="none" font-family="Arial" font-size="24px" font-style="normal" font-weight="normal" text-decoration="none" x="400" y="0">UNREGISTERED</text><text fill="#eeeeee" stroke="none" font-family="Arial" font-size="24px" font-style="normal" font-weight="normal" text-decoration="none" x="400" y="30">UNREGISTERED</text><text fill="#eeeeee" stroke="none" font-family="Arial" font-size="24px" font-style="normal" font-weight="normal" text-decoration="none" x="400" y="60">UNREGISTERED</text><text fill="#eeeeee" stroke="none" font-family="Arial" font-size="24px" font-style="normal" font-weight="normal" text-decoration="none" x="400" y="90">UNREGISTERED</text><text fill="#eeeeee" stroke="none" font-family="Arial" font-size="24px" font-style="normal" font-weight="normal" text-decoration="none" x="400" y="120">UNREGISTERED</text><text fill="#eeeeee" stroke="none" font-family="Arial" font-size="24px" font-style="normal" font-weight="normal" text-decoration="none" x="400" y="150">UNREGISTERED</text><text fill="#eeeeee" stroke="none" font-family="Arial" font-size="24px" font-style="normal" font-weight="normal" text-decoration="none" x="400" y="180">UNREGISTERED</text><text fill="#eeeeee" stroke="none" font-family="Arial" font-size="24px" font-style="normal" font-weight="normal" text-decoration="none" x="400" y="210">UNREGISTERED</text><text fill="#eeeeee" stroke="none" font-family="Arial" font-size="24px" font-style="normal" font-weight="normal" text-decoration="none" x="400" y="240">UNREGISTERED</text><text fill="#eeeeee" stroke="none" font-family="Arial" font-size="24px" font-style="normal" font-weight="normal" text-decoration="none" x="400" y="270">UNREGISTERED</text><text fill="#eeeeee" stroke="none" font-family="Arial" font-size="24px" font-style="normal" font-weight="normal" text-decoration="none" x="400" y="300">UNREGISTERED</text><text fill="#eeeeee" stroke="none" font-family="Arial" font-size="24px" font-style="normal" font-weight="normal" text-decoration="none" x="400" y="330">UNREGISTERED</text><text fill="#eeeeee" stroke="none" font-family="Arial" font-size="24px" font-style="normal" font-weight="normal" text-decoration="none" x="400" y="360">UNREGISTERED</text><text fill="#eeeeee" stroke="none" font-family="Arial" font-size="24px" font-style="normal" font-weight="normal" text-decoration="none" x="400" y="390">UNREGISTERED</text><text fill="#eeeeee" stroke="none" font-family="Arial" font-size="24px" font-style="normal" font-weight="normal" text-decoration="none" x="400" y="420">UNREGISTERED</text><text fill="#eeeeee" stroke="none" font-family="Arial" font-size="24px" font-style="normal" font-weight="normal" text-decoration="none" x="400" y="450">UNREGISTERED</text><text fill="#eeeeee" stroke="none" font-family="Arial" font-size="24px" font-style="normal" font-weight="normal" text-decoration="none" x="400" y="480">UNREGISTERED</text><text fill="#eeeeee" stroke="none" font-family="Arial" font-size="24px" font-style="normal" font-weight="normal" text-decoration="none" x="400" y="510">UNREGISTERED</text><text fill="#eeeeee" stroke="none" font-family="Arial" font-size="24px" font-style="normal" font-weight="normal" text-decoration="none" x="400" y="540">UNREGISTERED</text><text fill="#eeeeee" stroke="none" font-family="Arial" font-size="24px" font-style="normal" font-weight="normal" text-decoration="none" x="400" y="570">UNREGISTERED</text><text fill="#eeeeee" stroke="none" font-family="Arial" font-size="24px" font-style="normal" font-weight="normal" text-decoration="none" x="600" y="0">UNREGISTERED</text><text fill="#eeeeee" stroke="none" font-family="Arial" font-size="24px" font-style="normal" font-weight="normal" text-decoration="none" x="600" y="30">UNREGISTERED</text><text fill="#eeeeee" stroke="none" font-family="Arial" font-size="24px" font-style="normal" font-weight="normal" text-decoration="none" x="600" y="60">UNREGISTERED</text><text fill="#eeeeee" stroke="none" font-family="Arial" font-size="24px" font-style="normal" font-weight="normal" text-decoration="none" x="600" y="90">UNREGISTERED</text><text fill="#eeeeee" stroke="none" font-family="Arial" font-size="24px" font-style="normal" font-weight="normal" text-decoration="none" x="600" y="120">UNREGISTERED</text><text fill="#eeeeee" stroke="none" font-family="Arial" font-size="24px" font-style="normal" font-weight="normal" text-decoration="none" x="600" y="150">UNREGISTERED</text><text fill="#eeeeee" stroke="none" font-family="Arial" font-size="24px" font-style="normal" font-weight="normal" text-decoration="none" x="600" y="180">UNREGISTERED</text><text fill="#eeeeee" stroke="none" font-family="Arial" font-size="24px" font-style="normal" font-weight="normal" text-decoration="none" x="600" y="210">UNREGISTERED</text><text fill="#eeeeee" stroke="none" font-family="Arial" font-size="24px" font-style="normal" font-weight="normal" text-decoration="none" x="600" y="240">UNREGISTERED</text><text fill="#eeeeee" stroke="none" font-family="Arial" font-size="24px" font-style="normal" font-weight="normal" text-decoration="none" x="600" y="270">UNREGISTERED</text><text fill="#eeeeee" stroke="none" font-family="Arial" font-size="24px" font-style="normal" font-weight="normal" text-decoration="none" x="600" y="300">UNREGISTERED</text><text fill="#eeeeee" stroke="none" font-family="Arial" font-size="24px" font-style="normal" font-weight="normal" text-decoration="none" x="600" y="330">UNREGISTERED</text><text fill="#eeeeee" stroke="none" font-family="Arial" font-size="24px" font-style="normal" font-weight="normal" text-decoration="none" x="600" y="360">UNREGISTERED</text><text fill="#eeeeee" stroke="none" font-family="Arial" font-size="24px" font-style="normal" font-weight="normal" text-decoration="none" x="600" y="390">UNREGISTERED</text><text fill="#eeeeee" stroke="none" font-family="Arial" font-size="24px" font-style="normal" font-weight="normal" text-decoration="none" x="600" y="420">UNREGISTERED</text><text fill="#eeeeee" stroke="none" font-family="Arial" font-size="24px" font-style="normal" font-weight="normal" text-decoration="none" x="600" y="450">UNREGISTERED</text><text fill="#eeeeee" stroke="none" font-family="Arial" font-size="24px" font-style="normal" font-weight="normal" text-decoration="none" x="600" y="480">UNREGISTERED</text><text fill="#eeeeee" stroke="none" font-family="Arial" font-size="24px" font-style="normal" font-weight="normal" text-decoration="none" x="600" y="510">UNREGISTERED</text><text fill="#eeeeee" stroke="none" font-family="Arial" font-size="24px" font-style="normal" font-weight="normal" text-decoration="none" x="600" y="540">UNREGISTERED</text><text fill="#eeeeee" stroke="none" font-family="Arial" font-size="24px" font-style="normal" font-weight="normal" text-decoration="none" x="600" y="570">UNREGISTERED</text><g transform="translate(-230,-342) scale(1,1)"><rect fill="#C0C0C0" stroke="none" x="343" y="359" width="504" height="552" opacity="0.2"/></g><g transform="translate(-230,-342) scale(1,1)"><rect fill="#ffffff" stroke="none" x="336" y="352" width="504" height="552"/></g><g transform="translate(-230,-342) scale(1,1)"><path fill="none" stroke="#000000" d="M 336 352 L 840 352 L 840 904 L 336 904 L 336 352 Z Z" stroke-miterlimit="10"/></g><g transform="translate(-230,-342) scale(1,1)"><g><path fill="none" stroke="none"/><text fill="#000000" stroke="none" font-family="Arial" font-size="13px" font-style="normal" font-weight="bold" text-decoration="none" x="565.595947265625" y="369.2021484375">system</text></g></g><g transform="translate(-230,-342) scale(1,1)"><path fill="#ffffff" stroke="none" d="M 259.66887180397725 633.6800000000001 C 259.66887180397725 628.8861679360001 263.55471412892274 625 268.34814453125 625 C 273.14157493357726 625 277.02741725852275 628.8861679360001 277.02741725852275 633.6800000000001 C 277.02741725852275 638.473832064 273.14157493357726 642.36 268.34814453125 642.36 C 263.55471412892274 642.36 259.66887180397725 638.473832064 259.66887180397725 633.6800000000001 Z"/></g><g transform="translate(-230,-342) scale(1,1)"><path fill="none" stroke="#000000" d="M 259.66887180397725 633.6800000000001 C 259.66887180397725 628.8861679360001 263.55471412892274 625 268.34814453125 625 C 273.14157493357726 625 277.02741725852275 628.8861679360001 277.02741725852275 633.6800000000001 C 277.02741725852275 638.473832064 273.14157493357726 642.36 268.34814453125 642.36 C 263.55471412892274 642.36 259.66887180397725 638.473832064 259.66887180397725 633.6800000000001 Z" stroke-miterlimit="10"/></g><g transform="translate(-230,-342) scale(1,1)"><path fill="none" stroke="#000000" d="M 268.34814453125 642.36 L 268.34814453125 659.64" stroke-miterlimit="10"/></g><g transform="translate(-230,-342) scale(1,1)"><path fill="none" stroke="#000000" d="M 259.15832634943183 648.84 L 277.53796271306817 648.84" stroke-miterlimit="10"/></g><g transform="translate(-230,-342) scale(1,1)"><path fill="none" stroke="#000000" d="M 268.34814453125 659.64 L 255.58450816761365 677" stroke-miterlimit="10"/></g><g transform="translate(-230,-342) scale(1,1)"><path fill="none" stroke="#000000" d="M 268.34814453125 659.64 L 281.11178089488635 677" stroke-miterlimit="10"/></g><g transform="translate(-230,-342) scale(1,1)"><g><path fill="none" stroke="none"/><text fill="#000000" stroke="none" font-family="Arial" font-size="13px" font-style="normal" font-weight="bold" text-decoration="none" x="244.5" y="695.70361328125">Referee</text></g></g><g transform="translate(-230,-342) scale(1,1)"><path fill="#ffffff" stroke="none" d="M 880.4093503196023 625.6800000000001 C 880.4093503196023 620.8861679360001 884.2951926445477 617 889.088623046875 617 C 893.8820534492023 617 897.7678957741477 620.8861679360001 897.7678957741477 625.6800000000001 C 897.7678957741477 630.473832064 893.8820534492023 634.36 889.088623046875 634.36 C 884.2951926445477 634.36 880.4093503196023 630.473832064 880.4093503196023 625.6800000000001 Z"/></g><g transform="translate(-230,-342) scale(1,1)"><path fill="none" stroke="#000000" d="M 880.4093503196023 625.6800000000001 C 880.4093503196023 620.8861679360001 884.2951926445477 617 889.088623046875 617 C 893.8820534492023 617 897.7678957741477 620.8861679360001 897.7678957741477 625.6800000000001 C 897.7678957741477 630.473832064 893.8820534492023 634.36 889.088623046875 634.36 C 884.2951926445477 634.36 880.4093503196023 630.473832064 880.4093503196023 625.6800000000001 Z" stroke-miterlimit="10"/></g><g transform="translate(-230,-342) scale(1,1)"><path fill="none" stroke="#000000" d="M 889.088623046875 634.36 L 889.088623046875 651.64" stroke-miterlimit="10"/></g><g transform="translate(-230,-342) scale(1,1)"><path fill="none" stroke="#000000" d="M 879.8988048650568 640.84 L 898.2784412286932 640.84" stroke-miterlimit="10"/></g><g transform="translate(-230,-342) scale(1,1)"><path fill="none" stroke="#000000" d="M 889.088623046875 651.64 L 876.3249866832386 669" stroke-miterlimit="10"/></g><g transform="translate(-230,-342) scale(1,1)"><path fill="none" stroke="#000000" d="M 889.088623046875 651.64 L 901.8522594105114 669" stroke-miterlimit="10"/></g><g transform="translate(-230,-342) scale(1,1)"><g><path fill="none" stroke="none"/><text fill="#000000" stroke="none" font-family="Arial" font-size="13px" font-style="normal" font-weight="bold" text-decoration="none" x="874.635009765625" y="687.471923828125">User</text></g></g><g transform="translate(-230,-342) scale(1,1)"><path fill="#C0C0C0" stroke="none" d="M 503 465 C 503 450.6405952 518.4461744 439 537.5 439 C 556.5538256 439 572 450.6405952 572 465 C 572 479.3594048 556.5538256 491 537.5 491 C 518.4461744 491 503 479.3594048 503 465 Z" opacity="0.2"/></g><g transform="translate(-230,-342) scale(1,1)"><path fill="#ffffff" stroke="none" d="M 496 458 C 496 443.6405952 511.4461744 432 530.5 432 C 549.5538256 432 565 443.6405952 565 458 C 565 472.3594048 549.5538256 484 530.5 484 C 511.4461744 484 496 472.3594048 496 458 Z"/></g><g transform="translate(-230,-342) scale(1,1)"><path fill="none" stroke="#000000" d="M 496 458 C 496 443.6405952 511.4461744 432 530.5 432 C 549.5538256 432 565 443.6405952 565 458 C 565 472.3594048 549.5538256 484 530.5 484 C 511.4461744 484 496 472.3594048 496 458 Z" stroke-miterlimit="10"/></g><g transform="translate(-230,-342) scale(1,1)"><g><path fill="none" stroke="none"/><text fill="#000000" stroke="none" font-family="Arial" font-size="13px" font-style="normal" font-weight="bold" text-decoration="none" x="510.635009765625" y="456.7099609375">Define</text><text fill="#000000" stroke="none" font-family="Arial" font-size="13px" font-style="normal" font-weight="bold" text-decoration="none" x="511.7109375" y="469.2021484375">teams</text></g></g><g transform="translate(-230,-342) scale(1,1)"><path fill="#C0C0C0" stroke="none" d="M 487 546.5 C 487 526.8938896 504.0131776 511 525 511 C 545.9868224 511 563 526.8938896 563 546.5 C 563 566.1061104 545.9868224 582 525 582 C 504.0131776 582 487 566.1061104 487 546.5 Z" opacity="0.2"/></g><g transform="translate(-230,-342) scale(1,1)"><path fill="#ffffff" stroke="none" d="M 480 539.5 C 480 519.8938896 497.0131776 504 518 504 C 538.9868224 504 556 519.8938896 556 539.5 C 556 559.1061104 538.9868224 575 518 575 C 497.0131776 575 480 559.1061104 480 539.5 Z"/></g><g transform="translate(-230,-342) scale(1,1)"><path fill="none" stroke="#000000" d="M 480 539.5 C 480 519.8938896 497.0131776 504 518 504 C 538.9868224 504 556 519.8938896 556 539.5 C 556 559.1061104 538.9868224 575 518 575 C 497.0131776 575 480 559.1061104 480 539.5 Z" stroke-miterlimit="10"/></g><g transform="translate(-230,-342) scale(1,1)"><g><path fill="none" stroke="none"/><text fill="#000000" stroke="none" font-family="Arial" font-size="13px" font-style="normal" font-weight="bold" text-decoration="none" x="495.60546875" y="531.7099609375">Record</text><text fill="#000000" stroke="none" font-family="Arial" font-size="13px" font-style="normal" font-weight="bold" text-decoration="none" x="497.405029296875" y="543.49755859375">games</text><text fill="#000000" stroke="none" font-family="Arial" font-size="13px" font-style="normal" font-weight="bold" text-decoration="none" x="504.635009765625" y="557.7099609375">data</text></g></g><g transform="translate(-230,-342) scale(1,1)"><path fill="#C0C0C0" stroke="none" d="M 519 618.5 C 519 598.8938896 543.624336 583 574 583 C 604.375664 583 629 598.8938896 629 618.5 C 629 638.1061104 604.375664 654 574 654 C 543.624336 654 519 638.1061104 519 618.5 Z" opacity="0.2"/></g><g transform="translate(-230,-342) scale(1,1)"><path fill="#ffffff" stroke="none" d="M 512 611.5 C 512 591.8938896 536.624336 576 567 576 C 597.375664 576 622 591.8938896 622 611.5 C 622 631.1061104 597.375664 647 567 647 C 536.624336 647 512 631.1061104 512 611.5 Z"/></g><g transform="translate(-230,-342) scale(1,1)"><path fill="none" stroke="#000000" d="M 512 611.5 C 512 591.8938896 536.624336 576 567 576 C 597.375664 576 622 591.8938896 622 611.5 C 622 631.1061104 597.375664 647 567 647 C 536.624336 647 512 631.1061104 512 611.5 Z" stroke-miterlimit="10"/></g><g transform="translate(-230,-342) scale(1,1)"><g><path fill="none" stroke="none"/><text fill="#000000" stroke="none" font-family="Arial" font-size="13px" font-style="normal" font-weight="bold" text-decoration="none" x="549.29638671875" y="603.471923828125">Reset</text><text fill="#000000" stroke="none" font-family="Arial" font-size="13px" font-style="normal" font-weight="bold" text-decoration="none" x="532.69091796875" y="616.7099609375">application</text><text fill="#000000" stroke="none" font-family="Arial" font-size="13px" font-style="normal" font-weight="bold" text-decoration="none" x="553.635009765625" y="629.7099609375">data</text></g></g><g transform="translate(-230,-342) scale(1,1)"><path fill="#C0C0C0" stroke="none" d="M 663 578.5 C 663 558.8938896 678.4461744 543 697.5 543 C 716.5538256 543 732 558.8938896 732 578.5 C 732 598.1061104 716.5538256 614 697.5 614 C 678.4461744 614 663 598.1061104 663 578.5 Z" opacity="0.2"/></g><g transform="translate(-230,-342) scale(1,1)"><path fill="#ffffff" stroke="none" d="M 656 571.5 C 656 551.8938896 671.4461744 536 690.5 536 C 709.5538256 536 725 551.8938896 725 571.5 C 725 591.1061104 709.5538256 607 690.5 607 C 671.4461744 607 656 591.1061104 656 571.5 Z"/></g><g transform="translate(-230,-342) scale(1,1)"><path fill="none" stroke="#000000" d="M 656 571.5 C 656 551.8938896 671.4461744 536 690.5 536 C 709.5538256 536 725 551.8938896 725 571.5 C 725 591.1061104 709.5538256 607 690.5 607 C 671.4461744 607 656 591.1061104 656 571.5 Z" stroke-miterlimit="10"/></g><g transform="translate(-230,-342) scale(1,1)"><g><path fill="none" stroke="none"/><text fill="#000000" stroke="none" font-family="Arial" font-size="13px" font-style="normal" font-weight="bold" text-decoration="none" x="673.167724609375" y="563.7099609375">Show</text><text fill="#000000" stroke="none" font-family="Arial" font-size="13px" font-style="normal" font-weight="bold" text-decoration="none" x="671.35546875" y="576.7099609375">match</text><text fill="#000000" stroke="none" font-family="Arial" font-size="13px" font-style="normal" font-weight="bold" text-decoration="none" x="673.885009765625" y="589.7099609375">order</text></g></g><g transform="translate(-230,-342) scale(1,1)"><path fill="#C0C0C0" stroke="none" d="M 591 436.5 C 591 406.9527632 612.4903296 383 639 383 C 665.5096704 383 687 406.9527632 687 436.5 C 687 466.0472368 665.5096704 490 639 490 C 612.4903296 490 591 466.0472368 591 436.5 Z" opacity="0.2"/></g><g transform="translate(-230,-342) scale(1,1)"><path fill="#ffffff" stroke="none" d="M 584 429.5 C 584 399.9527632 605.4903296 376 632 376 C 658.5096704 376 680 399.9527632 680 429.5 C 680 459.0472368 658.5096704 483 632 483 C 605.4903296 483 584 459.0472368 584 429.5 Z"/></g><g transform="translate(-230,-342) scale(1,1)"><path fill="none" stroke="#000000" d="M 584 429.5 C 584 399.9527632 605.4903296 376 632 376 C 658.5096704 376 680 399.9527632 680 429.5 C 680 459.0472368 658.5096704 483 632 483 C 605.4903296 483 584 459.0472368 584 429.5 Z" stroke-miterlimit="10"/></g><g transform="translate(-230,-342) scale(1,1)"><g><path fill="none" stroke="none"/><text fill="#000000" stroke="none" font-family="Arial" font-size="13px" font-style="normal" font-weight="bold" text-decoration="none" x="614.667724609375" y="408.7099609375">Show</text><text fill="#000000" stroke="none" font-family="Arial" font-size="13px" font-style="normal" font-weight="bold" text-decoration="none" x="612.85546875" y="421.7099609375">match</text><text fill="#000000" stroke="none" font-family="Arial" font-size="13px" font-style="normal" font-weight="bold" text-decoration="none" x="615.385009765625" y="434.7099609375">order</text><text fill="#000000" stroke="none" font-family="Arial" font-size="13px" font-style="normal" font-weight="bold" text-decoration="none" x="609.9736328125" y="446.49755859375">groups</text><text fill="#000000" stroke="none" font-family="Arial" font-size="13px" font-style="normal" font-weight="bold" text-decoration="none" x="612.85546875" y="460.2021484375">status</text></g></g><g transform="translate(-230,-342) scale(1,1)"><path fill="#C0C0C0" stroke="none" d="M 703 436.5 C 703 406.9527632 728.0720512 383 759 383 C 789.9279488 383 815 406.9527632 815 436.5 C 815 466.0472368 789.9279488 490 759 490 C 728.0720512 490 703 466.0472368 703 436.5 Z" opacity="0.2"/></g><g transform="translate(-230,-342) scale(1,1)"><path fill="#ffffff" stroke="none" d="M 696 429.5 C 696 399.9527632 721.0720512 376 752 376 C 782.9279488 376 808 399.9527632 808 429.5 C 808 459.0472368 782.9279488 483 752 483 C 721.0720512 483 696 459.0472368 696 429.5 Z"/></g><g transform="translate(-230,-342) scale(1,1)"><path fill="none" stroke="#000000" d="M 696 429.5 C 696 399.9527632 721.0720512 376 752 376 C 782.9279488 376 808 399.9527632 808 429.5 C 808 459.0472368 782.9279488 483 752 483 C 721.0720512 483 696 459.0472368 696 429.5 Z" stroke-miterlimit="10"/></g><g transform="translate(-230,-342) scale(1,1)"><g><path fill="none" stroke="none"/><text fill="#000000" stroke="none" font-family="Arial" font-size="13px" font-style="normal" font-weight="bold" text-decoration="none" x="734.667724609375" y="408.7099609375">Show</text><text fill="#000000" stroke="none" font-family="Arial" font-size="13px" font-style="normal" font-weight="bold" text-decoration="none" x="732.85546875" y="421.7099609375">match</text><text fill="#000000" stroke="none" font-family="Arial" font-size="13px" font-style="normal" font-weight="bold" text-decoration="none" x="735.385009765625" y="434.7099609375">order</text><text fill="#000000" stroke="none" font-family="Arial" font-size="13px" font-style="normal" font-weight="bold" text-decoration="none" x="730.694091796875" y="447.7099609375">playoff</text><text fill="#000000" stroke="none" font-family="Arial" font-size="13px" font-style="normal" font-weight="bold" text-decoration="none" x="740.075927734375" y="460.2021484375">tree</text></g></g><g transform="translate(-230,-342) scale(1,1)"><path fill="none" stroke="#000000" d="M 495 485 L 298 640" stroke-miterlimit="10"/></g><g transform="translate(-230,-342) scale(1,1)"><path fill="none" stroke="#000000" d="M 479 558 L 298 648" stroke-miterlimit="10"/></g><g transform="translate(-230,-342) scale(1,1)"><path fill="none" stroke="#000000" d="M 511 621 L 298 658" stroke-miterlimit="10"/></g><g transform="translate(-230,-342) scale(1,1)"><path fill="none" stroke="#000000" d="M 863 644 L 726 586" stroke-miterlimit="10"/></g><g transform="translate(-230,-342) scale(1,1)"><path fill="none" stroke="#000000" d="M 654 484 L 675 535" stroke-miterlimit="10"/></g><g transform="translate(-230,-342) scale(1,1)"><path fill="#FFFFFF" stroke="none" d="M 659.476229305937 519.4111404061058 L 675 535 L 675.0460248024506 513.0000481428355"/></g><g transform="translate(-230,-342) scale(1,1)"><path fill="none" stroke="#000000" d="M 659.476229305937 519.4111404061058 L 675 535 L 675.0460248024506 513.0000481428355 L 659.476229305937 519.4111404061058" stroke-miterlimit="10"/></g><g transform="translate(-230,-342) scale(1,1)"><path fill="none" stroke="#000000" d="M 728 484 L 706 535" stroke-miterlimit="10"/></g><g transform="translate(-230,-342) scale(1,1)"><path fill="#FFFFFF" stroke="none" d="M 706.3202375503017 513.0023308527614 L 706 535 L 721.7811431677195 519.6717411190983"/></g><g transform="translate(-230,-342) scale(1,1)"><path fill="none" stroke="#000000" d="M 706.3202375503017 513.0023308527614 L 706 535 L 721.7811431677195 519.6717411190983 L 706.3202375503017 513.0023308527614" stroke-miterlimit="10"/></g><g transform="translate(-230,-342) scale(1,1)"><path fill="#C0C0C0" stroke="none" d="M 575 689 C 575 674.6405952 594.2517536 663 618 663 C 641.7482464 663 661 674.6405952 661 689 C 661 703.3594048 641.7482464 715 618 715 C 594.2517536 715 575 703.3594048 575 689 Z" opacity="0.2"/></g><g transform="translate(-230,-342) scale(1,1)"><path fill="#ffffff" stroke="none" d="M 568 682 C 568 667.6405952 587.2517536 656 611 656 C 634.7482464 656 654 667.6405952 654 682 C 654 696.3594048 634.7482464 708 611 708 C 587.2517536 708 568 696.3594048 568 682 Z"/></g><g transform="translate(-230,-342) scale(1,1)"><path fill="none" stroke="#000000" d="M 568 682 C 568 667.6405952 587.2517536 656 611 656 C 634.7482464 656 654 667.6405952 654 682 C 654 696.3594048 634.7482464 708 611 708 C 587.2517536 708 568 696.3594048 568 682 Z" stroke-miterlimit="10"/></g><g transform="translate(-230,-342) scale(1,1)"><g><path fill="none" stroke="none"/><text fill="#000000" stroke="none" font-family="Arial" font-size="13px" font-style="normal" font-weight="bold" text-decoration="none" x="584.990478515625" y="680.7099609375">Register</text><text fill="#000000" stroke="none" font-family="Arial" font-size="13px" font-style="normal" font-weight="bold" text-decoration="none" x="586.0791015625" y="693.2021484375">account</text></g></g><g transform="translate(-230,-342) scale(1,1)"><path fill="#C0C0C0" stroke="none" d="M 583 778.5 C 583 758.8938896 598.4461744 743 617.5 743 C 636.5538256 743 652 758.8938896 652 778.5 C 652 798.1061104 636.5538256 814 617.5 814 C 598.4461744 814 583 798.1061104 583 778.5 Z" opacity="0.2"/></g><g transform="translate(-230,-342) scale(1,1)"><path fill="#ffffff" stroke="none" d="M 576 771.5 C 576 751.8938896 591.4461744 736 610.5 736 C 629.5538256 736 645 751.8938896 645 771.5 C 645 791.1061104 629.5538256 807 610.5 807 C 591.4461744 807 576 791.1061104 576 771.5 Z"/></g><g transform="translate(-230,-342) scale(1,1)"><path fill="none" stroke="#000000" d="M 576 771.5 C 576 751.8938896 591.4461744 736 610.5 736 C 629.5538256 736 645 751.8938896 645 771.5 C 645 791.1061104 629.5538256 807 610.5 807 C 591.4461744 807 576 791.1061104 576 771.5 Z" stroke-miterlimit="10"/></g><g transform="translate(-230,-342) scale(1,1)"><g><path fill="none" stroke="none"/><text fill="#000000" stroke="none" font-family="Arial" font-size="13px" font-style="normal" font-weight="bold" text-decoration="none" x="592.812255859375" y="763.7099609375">Login</text><text fill="#000000" stroke="none" font-family="Arial" font-size="13px" font-style="normal" font-weight="bold" text-decoration="none" x="604.364990234375" y="776.2021484375">to</text><text fill="#000000" stroke="none" font-family="Arial" font-size="13px" font-style="normal" font-weight="bold" text-decoration="none" x="598.944091796875" y="788.49755859375">app</text></g></g><g transform="translate(-230,-342) scale(1,1)"><path fill="none" stroke="#000000" d="M 298 665 L 567 680" stroke-miterlimit="10"/></g><g transform="translate(-230,-342) scale(1,1)"><path fill="none" stroke="#000000" d="M 298 672 L 575 760" stroke-miterlimit="10"/></g><g transform="translate(-230,-342) scale(1,1)"><path fill="none" stroke="#000000" d="M 863 658 L 655 678" stroke-miterlimit="10"/></g><g transform="translate(-230,-342) scale(1,1)"><path fill="none" stroke="#000000" d="M 863 666 L 646 756" stroke-miterlimit="10"/></g><g transform="translate(-230,-342) scale(1,1)"><path fill="#C0C0C0" stroke="none" d="M 359 844.5 C 359 814.9527632 380.0426144 791 406 791 C 431.9573856 791 453 814.9527632 453 844.5 C 453 874.0472368 431.9573856 898 406 898 C 380.0426144 898 359 874.0472368 359 844.5 Z" opacity="0.2"/></g><g transform="translate(-230,-342) scale(1,1)"><path fill="#ffffff" stroke="none" d="M 352 837.5 C 352 807.9527632 373.0426144 784 399 784 C 424.9573856 784 446 807.9527632 446 837.5 C 446 867.0472368 424.9573856 891 399 891 C 373.0426144 891 352 867.0472368 352 837.5 Z"/></g><g transform="translate(-230,-342) scale(1,1)"><path fill="none" stroke="#000000" d="M 352 837.5 C 352 807.9527632 373.0426144 784 399 784 C 424.9573856 784 446 807.9527632 446 837.5 C 446 867.0472368 424.9573856 891 399 891 C 373.0426144 891 352 867.0472368 352 837.5 Z" stroke-miterlimit="10"/></g><g transform="translate(-230,-342) scale(1,1)"><g><path fill="none" stroke="none"/><text fill="#000000" stroke="none" font-family="Arial" font-size="13px" font-style="normal" font-weight="bold" text-decoration="none" x="370.09912109375" y="823.2099609375">Calculate</text><text fill="#000000" stroke="none" font-family="Arial" font-size="13px" font-style="normal" font-weight="bold" text-decoration="none" x="377.694091796875" y="836.2099609375">playoff</text><text fill="#000000" stroke="none" font-family="Arial" font-size="13px" font-style="normal" font-weight="bold" text-decoration="none" x="380.214111328125" y="849.2099609375">phase</text><text fill="#000000" stroke="none" font-family="Arial" font-size="13px" font-style="normal" font-weight="bold" text-decoration="none" x="370.82275390625" y="862.2099609375">schedule</text></g></g><g transform="translate(-230,-342) scale(1,1)"><path fill="none" stroke="#000000" d="M 298 702 L 358 783" stroke-miterlimit="10"/></g><g transform="translate(-230,-342) scale(1,1)"><path fill="#C0C0C0" stroke="none" d="M 399 474.5 C 399 454.8938896 414.4461744 439 433.5 439 C 452.5538256 439 468 454.8938896 468 474.5 C 468 494.1061104 452.5538256 510 433.5 510 C 414.4461744 510 399 494.1061104 399 474.5 Z" opacity="0.2"/></g><g transform="translate(-230,-342) scale(1,1)"><path fill="#ffffff" stroke="none" d="M 392 467.5 C 392 447.8938896 407.4461744 432 426.5 432 C 445.5538256 432 461 447.8938896 461 467.5 C 461 487.1061104 445.5538256 503 426.5 503 C 407.4461744 503 392 487.1061104 392 467.5 Z"/></g><g transform="translate(-230,-342) scale(1,1)"><path fill="none" stroke="#000000" d="M 392 467.5 C 392 447.8938896 407.4461744 432 426.5 432 C 445.5538256 432 461 447.8938896 461 467.5 C 461 487.1061104 445.5538256 503 426.5 503 C 407.4461744 503 392 487.1061104 392 467.5 Z" stroke-miterlimit="10"/></g><g transform="translate(-230,-342) scale(1,1)"><g><path fill="none" stroke="none"/><text fill="#000000" stroke="none" font-family="Arial" font-size="13px" font-style="normal" font-weight="bold" text-decoration="none" x="414.2236328125" y="459.7099609375">Edit</text><text fill="#000000" stroke="none" font-family="Arial" font-size="13px" font-style="normal" font-weight="bold" text-decoration="none" x="411.325927734375" y="472.2021484375">team</text><text fill="#000000" stroke="none" font-family="Arial" font-size="13px" font-style="normal" font-weight="bold" text-decoration="none" x="413.135009765625" y="485.7099609375">data</text></g></g><g transform="translate(-230,-342) scale(1,1)"><path fill="none" stroke="#000000" d="M 298 626 L 396 504" stroke-miterlimit="10"/></g><g transform="translate(-230,-342) scale(1,1)"><path fill="#C0C0C0" stroke="none" d="M 359 402.5 C 359 382.8938896 376.908608 367 399 367 C 421.091392 367 439 382.8938896 439 402.5 C 439 422.1061104 421.091392 438 399 438 C 376.908608 438 359 422.1061104 359 402.5 Z" opacity="0.2"/></g><g transform="translate(-230,-342) scale(1,1)"><path fill="#ffffff" stroke="none" d="M 352 395.5 C 352 375.8938896 369.908608 360 392 360 C 414.091392 360 432 375.8938896 432 395.5 C 432 415.1061104 414.091392 431 392 431 C 369.908608 431 352 415.1061104 352 395.5 Z"/></g><g transform="translate(-230,-342) scale(1,1)"><path fill="none" stroke="#000000" d="M 352 395.5 C 352 375.8938896 369.908608 360 392 360 C 414.091392 360 432 375.8938896 432 395.5 C 432 415.1061104 414.091392 431 392 431 C 369.908608 431 352 415.1061104 352 395.5 Z" stroke-miterlimit="10"/></g><g transform="translate(-230,-342) scale(1,1)"><g><path fill="none" stroke="none"/><text fill="#000000" stroke="none" font-family="Arial" font-size="13px" font-style="normal" font-weight="bold" text-decoration="none" x="368.16455078125" y="387.7099609375">Change</text><text fill="#000000" stroke="none" font-family="Arial" font-size="13px" font-style="normal" font-weight="bold" text-decoration="none" x="378.27001953125" y="399.49755859375">user</text><text fill="#000000" stroke="none" font-family="Arial" font-size="13px" font-style="normal" font-weight="bold" text-decoration="none" x="373.944091796875" y="413.7099609375">rights</text></g></g><g transform="translate(-230,-342) scale(1,1)"><path fill="none" stroke="#000000" d="M 287 623 L 375 432" stroke-miterlimit="10"/></g><g transform="translate(-230,-342) scale(1,1)"><path fill="#C0C0C0" stroke="none" d="M 479 844.5 C 479 814.9527632 500.0426144 791 526 791 C 551.9573856 791 573 814.9527632 573 844.5 C 573 874.0472368 551.9573856 898 526 898 C 500.0426144 898 479 874.0472368 479 844.5 Z" opacity="0.2"/></g><g transform="translate(-230,-342) scale(1,1)"><path fill="#ffffff" stroke="none" d="M 472 837.5 C 472 807.9527632 493.0426144 784 519 784 C 544.9573856 784 566 807.9527632 566 837.5 C 566 867.0472368 544.9573856 891 519 891 C 493.0426144 891 472 867.0472368 472 837.5 Z"/></g><g transform="translate(-230,-342) scale(1,1)"><path fill="none" stroke="#000000" d="M 472 837.5 C 472 807.9527632 493.0426144 784 519 784 C 544.9573856 784 566 807.9527632 566 837.5 C 566 867.0472368 544.9573856 891 519 891 C 493.0426144 891 472 867.0472368 472 837.5 Z" stroke-miterlimit="10"/></g><g transform="translate(-230,-342) scale(1,1)"><g><path fill="none" stroke="none"/><text fill="#000000" stroke="none" font-family="Arial" font-size="13px" font-style="normal" font-weight="bold" text-decoration="none" x="490.09912109375" y="823.2099609375">Calculate</text><text fill="#000000" stroke="none" font-family="Arial" font-size="13px" font-style="normal" font-weight="bold" text-decoration="none" x="497.694091796875" y="836.2099609375">playoff</text><text fill="#000000" stroke="none" font-family="Arial" font-size="13px" font-style="normal" font-weight="bold" text-decoration="none" x="500.214111328125" y="849.2099609375">phase</text><text fill="#000000" stroke="none" font-family="Arial" font-size="13px" font-style="normal" font-weight="bold" text-decoration="none" x="490.82275390625" y="862.2099609375">schedule</text></g></g><g transform="translate(-230,-342) scale(1,1)"><path fill="none" stroke="#000000" d="M 471 804 L 298 684" stroke-miterlimit="10"/></g></g></svg>